<svg xmlns="http://www.w3.org/2000/svg" xmlns:xlink="http://www.w3.org/1999/xlink" version="1.1" width="256" height="256" viewBox="0 0 256 256" xml:space="preserve">

<defs>
</defs>
<g style="stroke: none; stroke-width: 0; stroke-dasharray: none; stroke-linecap: butt; stroke-linejoin: miter; stroke-miterlimit: 10; fill: none; fill-rule: nonzero; opacity: 1;" transform="translate(1.4065934065934016 1.4065934065934016) scale(2.81 2.81)" >
	<path d="M 89 30.872 h -5.723 V 16.685 c 0 -0.271 -0.11 -0.531 -0.305 -0.719 c -0.196 -0.188 -0.452 -0.294 -0.729 -0.28 c -4.328 0.149 -8.538 0.752 -12.554 1.749 V 6.489 c 0 -0.344 -0.177 -0.665 -0.469 -0.847 c -0.293 -0.184 -0.656 -0.203 -0.968 -0.053 c -8.89 4.309 -16.793 12.648 -23.51 24.775 C 34.734 21.111 22.995 16.165 9.821 15.685 c -0.279 -0.019 -0.535 0.091 -0.731 0.28 c -0.195 0.188 -0.306 0.448 -0.306 0.72 v 7.33 c -1.392 0.098 -2.803 0.225 -4.22 0.4 c -0.504 0.063 -0.882 0.493 -0.877 1.001 l 0.047 5.456 H 0 v 53.639 h 45 h 44 c 0.553 0 1 -0.447 1 -1 V 31.872 C 90 31.32 89.553 30.872 89 30.872 z M 81.277 17.728 v 49.546 c -12.104 0.599 -23.047 4.597 -32.62 11.893 c 6.014 -9.756 12.883 -16.554 20.469 -20.23 c 0.345 -0.167 0.563 -0.517 0.563 -0.899 v -38.55 C 73.393 18.533 77.278 17.932 81.277 17.728 z M 67.689 8.127 v 49.291 C 59.575 61.524 52.293 69.006 46 79.693 V 32.215 C 52.254 20.646 59.544 12.552 67.689 8.127 z M 44 32.39 v 48.732 c -0.102 -0.058 -0.206 -0.112 -0.309 -0.17 c -9.529 -8.42 -20.581 -13.019 -32.907 -13.675 V 24.922 c 0 -0.013 0.006 -0.024 0.005 -0.038 c 0 -0.007 -0.005 -0.013 -0.005 -0.02 v -7.133 C 23.312 18.424 34.48 23.352 44 32.39 z M 8.784 26.017 v 42.216 c 0 0.538 0.426 0.979 0.963 0.999 c 9.224 0.336 17.72 2.954 25.382 7.782 c -8.824 -3.185 -18.537 -4.216 -29.023 -3.063 L 5.694 26.296 C 6.732 26.179 7.763 26.091 8.784 26.017 z M 2 32.872 h 1.751 l 0.366 42.211 c 0.002 0.285 0.126 0.556 0.341 0.743 c 0.214 0.188 0.501 0.273 0.782 0.24 c 13.865 -1.716 26.332 0.461 37.135 6.444 H 2 V 32.872 z M 88 82.511 H 47.668 c 10 -8.366 21.642 -12.831 34.643 -13.278 c 0.539 -0.019 0.966 -0.46 0.966 -0.999 V 32.872 H 88 V 82.511 z" style="stroke: none; stroke-width: 1; stroke-dasharray: none; stroke-linecap: butt; stroke-linejoin: miter; stroke-miterlimit: 10; fill: rgb(0,0,0); fill-rule: nonzero; opacity: 1;" transform=" matrix(1 0 0 1 0 0) " stroke-linecap="round" />
</g>
</svg>
